<?xml version="1.0" encoding="UTF-8" standalone="no"?>
<svg
   xmlns:dc="http://purl.org/dc/elements/1.1/"
   xmlns:cc="http://creativecommons.org/ns#"
   xmlns:rdf="http://www.w3.org/1999/02/22-rdf-syntax-ns#"
   xmlns:svg="http://www.w3.org/2000/svg"
   xmlns="http://www.w3.org/2000/svg"
   xmlns:sodipodi="http://sodipodi.sourceforge.net/DTD/sodipodi-0.dtd"
   xmlns:inkscape="http://www.inkscape.org/namespaces/inkscape"
   width="144.79715mm"
   height="52.356792mm"
   viewBox="0 0 144.79715 52.356792"
   version="1.1"
   id="svg1038"
   inkscape:version="1.0.1 (3bc2e813f5, 2020-09-07)"
   sodipodi:docname="up.svg">
  <defs
     id="defs1032" />
  <sodipodi:namedview
     id="base"
     pagecolor="#ffffff"
     bordercolor="#666666"
     borderopacity="1.0"
     inkscape:pageopacity="0.0"
     inkscape:pageshadow="2"
     inkscape:zoom="0.33962553"
     inkscape:cx="265.87773"
     inkscape:cy="-65.780389"
     inkscape:document-units="mm"
     inkscape:current-layer="layer1"
     inkscape:document-rotation="0"
     showgrid="false"
     fit-margin-top="0"
     fit-margin-left="0"
     fit-margin-right="0"
     fit-margin-bottom="0"
     inkscape:window-width="946"
     inkscape:window-height="1040"
     inkscape:window-x="1862"
     inkscape:window-y="364"
     inkscape:window-maximized="1" />
  <metadata
     id="metadata1035">
    <rdf:RDF>
      <cc:Work
         rdf:about="">
        <dc:format>image/svg+xml</dc:format>
        <dc:type
           rdf:resource="http://purl.org/dc/dcmitype/StillImage" />
        <dc:title></dc:title>
      </cc:Work>
    </rdf:RDF>
  </metadata>
  <g
     inkscape:label="Layer 1"
     inkscape:groupmode="layer"
     id="layer1"
     transform="translate(-9.1298156,-236.03454)">
    <rect
       style="opacity:0.95;fill:#00c400;fill-opacity:1;stroke:#00c400;stroke-width:1.30594;stroke-linecap:butt;stroke-linejoin:round;stroke-miterlimit:4;stroke-dasharray:none;stroke-opacity:1;paint-order:markers fill stroke"
       id="rect833-7"
       width="138.3363"
       height="42.950806"
       x="44.112808"
       y="242.72595"
       ry="0"
       transform="matrix(0.999896,-0.01442206,-0.12013863,0.99275713,0,0)" />
    <g
       id="g958"
       transform="translate(170.28845,250.85232)">
      <path
         sodipodi:type="star"
         style="opacity:0.95;fill:#006c00;fill-opacity:1;stroke:#00c400;stroke-width:1.3;stroke-linecap:butt;stroke-linejoin:round;stroke-miterlimit:4;stroke-dasharray:none;stroke-opacity:1;paint-order:markers fill stroke"
         id="path949"
         sodipodi:sides="7"
         sodipodi:cx="-126.71141"
         sodipodi:cy="9.9194088"
         sodipodi:r1="22.949575"
         sodipodi:r2="13.081258"
         sodipodi:arg1="0.51997946"
         sodipodi:arg2="0.96877841"
         inkscape:flatsided="false"
         inkscape:rounded="0"
         inkscape:randomized="0.1"
         d="m -108.07776,19.070383 -9.80062,0.526087 -7.12815,14.648686 -7.65273,-11.116388 -10.97909,3.958461 3.66864,-11.553375 -10.13115,-5.8471428 10.31552,-6.3159509 -0.2636,-11.3845989 10.81244,5.9639551 10.68855,-7.9680145 1.78504,12.169054 10.86409,-1.76637866 -9.65961,9.09169366 z"
         inkscape:transform-center-x="0.34279313"
         inkscape:transform-center-y="1.8968265" />
      <path
         sodipodi:type="star"
         style="opacity:0.95;fill:#006c00;fill-opacity:1;stroke:#00c400;stroke-width:1.3;stroke-linecap:butt;stroke-linejoin:round;stroke-miterlimit:4;stroke-dasharray:none;stroke-opacity:1;paint-order:markers fill stroke"
         id="path951"
         sodipodi:sides="7"
         sodipodi:cx="-96.901054"
         sodipodi:cy="0.99903458"
         sodipodi:r1="24.453045"
         sodipodi:r2="13.938236"
         sodipodi:arg1="0.67523907"
         sodipodi:arg2="1.124038"
         inkscape:flatsided="false"
         inkscape:rounded="0"
         inkscape:randomized="0.1"
         d="m -79.362894,16.098165 -13.131469,-1.275915 -2.173945,12.149385 -6.503062,-15.812615 -16.43994,5.220907 8.03482,-12.7482103 -11.21609,-7.1501436 13.59347,-4.0787973 1.23557,-14.4819988 9.703911,9.253741 8.264764,-8.386794 2.472148,12.185584 14.548564,6.3606106 -14.08433,4.4452224 z"
         inkscape:transform-center-x="1.3361676"
         inkscape:transform-center-y="1.5624465"
         transform="translate(-6.9063832,7.9113626)" />
      <path
         sodipodi:type="star"
         style="opacity:0.95;fill:#006c00;fill-opacity:1;stroke:#00c400;stroke-width:1.3;stroke-linecap:butt;stroke-linejoin:round;stroke-miterlimit:4;stroke-dasharray:none;stroke-opacity:1;paint-order:markers fill stroke"
         id="path953"
         sodipodi:sides="7"
         sodipodi:cx="-63.924713"
         sodipodi:cy="-15.119813"
         sodipodi:r1="23.98414"
         sodipodi:r2="13.67096"
         sodipodi:arg1="0.9778664"
         sodipodi:arg2="1.4266654"
         inkscape:flatsided="false"
         inkscape:rounded="0"
         inkscape:randomized="0.1"
         d="m -48.229192,3.018807 -13.94661,-5.4797165 -10.167515,9.3657535 -1.372166,-13.7863246 -12.497659,1.0142597 7.936328,-12.6104691 -5.358975,-7.891148 13.199368,0.909021 1.470301,-12.963376 9.289197,10.721595 12.660587,-6.316408 -4.328671,13.381401 10.14044,6.562846 -11.318543,5.9718081 z"
         inkscape:transform-center-x="-0.55551201"
         inkscape:transform-center-y="0.20046796"
         transform="translate(-16.054587,24.647076)" />
    </g>
    <path
       sodipodi:type="star"
       style="opacity:0.95;fill:#006c00;fill-opacity:1;stroke:#00c400;stroke-width:1.3;stroke-linecap:butt;stroke-linejoin:round;stroke-miterlimit:4;stroke-dasharray:none;stroke-opacity:1;paint-order:markers fill stroke"
       id="path960"
       sodipodi:sides="7"
       sodipodi:cx="-50.427921"
       sodipodi:cy="28.474144"
       sodipodi:r1="25.968102"
       sodipodi:r2="14.801818"
       sodipodi:arg1="0.77941696"
       sodipodi:arg2="1.2282159"
       inkscape:flatsided="false"
       inkscape:rounded="0"
       inkscape:randomized="0.1"
       d="m -30.178512,47.621069 -15.187484,-4.450276 -5.308715,11.61912 -7.888593,-13.787449 -15.889426,2.869303 11.777372,-12.688672 -14.175561,-10.179145 14.228756,-4.632594 1.173234,-9.8209293 12.39071,6.9481233 12.27221,-7.5533776 -2.734818,14.5454686 13.467628,3.941996 -9.198106,9.936475 z"
       inkscape:transform-center-x="-0.19806282"
       inkscape:transform-center-y="0.96838562"
       transform="translate(163.45721,232.95149)" />
    <g
       id="g947"
       transform="matrix(0.04938371,0,0,0.04938371,27.653605,154.15303)">
      <path
         d="m 1828.4777,2188.8491 19.9785,49.1595 -123.5819,-66.5619 -99.6973,0.056 99.6973,-0.056 62.1657,-39.1259 -7.2479,-54.2122 -23.3622,-51.0975 29.6651,47.677 127.0165,-5.9786 -124.8528,69.9128 z"
         id="path894"
         style="fill:#006c00;fill-opacity:1;stroke-width:0.20552"
         sodipodi:nodetypes="cccccccccccc" />
      <path
         d="m 1561.5239,2114.2621 21.176,-49.653 14.604,-118.29 c 0,0 33.589,-114.64 28.478,-128.51 -5.111,-13.87 -15.334,-54.765 -17.525,-63.527 -2.191,-8.762 -2.1906,-18.985 5.1113,-18.985 7.3019,0 27.017,-2.9207 33.589,5.8416 6.572,8.7623 26.287,24.827 29.938,36.51 3.651,11.683 20.446,40.161 19.715,54.034 -0.731,13.873 -5.1114,35.78 -5.1114,62.066 0,26.286 6.5718,40.891 9.4925,55.495 2.9207,14.604 -13.874,8.7623 16.794,8.7623 30.668,0 91.274,-7.3019 98.576,-5.8415 7.302,1.4604 64.257,10.223 74.48,10.953 10.223,0.73 34.319,19.715 40.891,23.366 6.572,3.651 16.794,18.985 15.334,30.668 -1.46,11.683 0.7302,21.906 -8.0321,24.827 -8.7623,2.921 2.9208,-2.9208 2.9208,-2.9208 0,0 11.683,1.4604 17.525,13.874 5.842,12.4136 16.064,36.51 8.0322,52.574 -8.0318,16.064 -18.985,16.064 -18.985,16.064 0,0 8.7624,-5.8416 10.223,6.5717 1.4606,12.4133 9.4926,12.413 5.1114,19.715 -4.3812,7.302 -15.334,32.129 -22.636,32.129 -7.302,0 -12.413,2.1906 -12.413,2.1906 0,0 9.4925,-2.1906 14.604,2.9208 5.1115,5.1114 7.3019,34.319 1.4604,39.43 -5.8415,5.111 13.874,2.1905 -11.683,8.7623 -25.557,6.5718 -51.114,10.223 -71.559,15.334 -20.445,5.111 -22.636,13.144 -43.812,21.906 -21.176,8.762 -135.82,32.128 -146.04,35.78 -10.22,3.652 -20.446,16.794 -28.478,21.176 -8.032,4.382 -116.83,-168.67 -116.83,-168.67 l 35.049,-44.542 z"
         fill="#ffffff"
         fill-rule="evenodd"
         id="path896" />
      <path
         d="m 1612.2539,1729.1821 c -1.7707,0.3869 -3.3769,1.0382 -4.7605,1.9205 -2.7672,1.7647 -4.4667,4.3041 -5.4216,6.6121 -0.1977,0.4777 -0.274,0.9193 -0.4223,1.3865 l -0.7153,-0.1391 -9.7976,-2.0049 4.1286,9.1133 17.506,38.734 1.2014,8.3101 c 0.8622,3.3802 2.2247,9.099 4.5897,20.4 0.988,4.7208 0.2531,16.483 -2.0092,30.271 -2.2623,13.788 -5.8246,29.988 -9.5638,45.524 -3.7392,15.536 -7.659,30.412 -10.683,41.657 -1.5119,5.6225 -2.8003,10.35 -3.7277,13.798 -0.4637,1.7242 -0.834,3.1305 -1.1073,4.1993 -0.2733,1.0688 -0.4122,1.3027 -0.5648,2.5822 l 10.149,1.2164 c -0.094,0.7915 0.068,-0.2921 0.3195,-1.2762 0.2515,-0.9841 0.6151,-2.3669 1.0744,-4.0748 0.9187,-3.4158 2.2146,-8.14 3.7318,-13.783 3.0346,-11.285 6.9869,-26.25 10.76,-41.926 3.7731,-15.676 7.3674,-32.046 9.6987,-46.255 2.3313,-14.209 3.6351,-25.872 1.9266,-34.036 -2.7062,-12.931 -4.2446,-19.358 -5.144,-22.715 -0.1687,-0.6295 -0.2523,-0.7982 -0.3811,-1.2373 l 1.1972,-2.0737 -1.0863,-2.3878 -13.305,-29.475 1.8736,0.8209 -0.8356,-8.6727 c 0,0 -0.095,-2.2953 0.6331,-4.0557 0.3642,-0.8802 0.7923,-1.4646 1.4753,-1.9001 0.683,-0.4355 1.8121,-0.8804 4.2465,-0.6914 6.9855,0.5424 13.818,0.3372 20.223,2.155 6.405,1.8178 12.565,5.36 18.794,14.411 6.7389,9.7918 15.653,23.52 22.824,36.796 7.171,13.276 12.338,26.559 12.381,33.063 0.052,7.7915 -2.0573,20.953 -3.7162,35.441 -1.6589,14.488 -2.8662,30.462 -0.5511,45.094 2.1984,13.894 5.5831,32.144 9.2314,48.955 3.6483,16.811 7.4418,31.956 11.013,40.606 6.7599,16.375 17.913,34.118 19.446,49.922 8.7804,43.817 11.674,83.118 -2.011,125.98 l 3.9486,0.7799 c 17.44,-48.202 15.486,-78.993 8.2474,-127.76 -1.8966,-19.563 -14.026,-37.896 -20.192,-52.831 -2.8918,-7.0051 -6.8644,-22.28 -10.464,-38.868 -3.5996,-16.588 -6.9515,-34.728 -9.1134,-48.391 -2.0452,-12.926 -1.0252,-28.156 0.5976,-42.328 1.6228,-14.172 3.8593,-27.122 3.796,-36.686 -0.072,-10.852 -6.1588,-24.044 -13.613,-37.843 -7.4542,-13.799 -16.527,-27.738 -23.406,-37.732 -7.3879,-10.735 -16.099,-16.08 -24.422,-18.443 -8.323,-2.363 -16.086,-2.0515 -22.224,-2.5282 -2.0639,-0.1603 -4.0041,-0.03 -5.7749,0.3567 z"
         fill-rule="evenodd"
         id="path898" />
      <path
         d="m 1708.4039,1959.8221 c 0,0 86.868,-5.8894 94.11,-7.074 7.242,-1.1846 87.449,7.5622 99.969,14.791 12.52,7.2288 34.878,20.137 39.174,33.349 4.296,13.212 1.134,4.2319 5.2411,16.739 4.1071,12.5071 -5.6154,24.183 -5.6154,24.183 0,0 8.8417,-0.8572 20.67,17.896 11.8283,18.7532 9.3293,27.723 7.4348,41.853 -1.6581,12.367 -13.853,18.831 -13.853,18.831 0,0 4.9508,10.013 6.2366,23.275 1.2858,13.262 -18.915,33.794 -18.915,33.794 l -10.718,5.1397 c 0,0 14.862,-0.9585 13.654,11.46 -1.208,12.4185 1.5896,31.324 -6.6345,37.308 -8.2241,5.984 -76.086,15.096 -76.086,15.096 0,0 15.946,0.2631 -5.4028,5.2275 -21.3488,4.9644 -27.457,10.381 -37.608,17.636 -10.151,7.255 -71.564,20.687 -107.91,28.915 -36.346,8.228 -32.168,4.0835 -53.314,21.089 -21.146,17.0055 -33.966,34.048 -33.966,34.048"
         fill="none"
         stroke="#000000"
         stroke-width="10.223"
         id="path900" />
      <path
         d="m 1780.9739,2075.1721 -0.2626,3.98 c 0,0 15.973,2.016 34.236,3.2289 9.1314,0.6065 18.842,1.0198 27.536,0.8735 8.694,-0.1463 16.201,-0.703 21.896,-2.7086 9.4953,-3.3435 26.094,-10.825 41.855,-18.078 15.761,-7.253 30.75,-14.329 35.411,-16.268 l -3.917,-9.4345 c -5.5405,2.3057 -20.068,9.1889 -35.769,16.414 -15.701,7.2251 -32.509,14.745 -40.974,17.726 -3.2848,1.1566 -10.439,1.9889 -18.678,2.1275 -8.239,0.1386 -17.732,-0.2581 -26.687,-0.8529 -17.911,-1.1896 -34.646,2.9925 -34.646,2.9925 z"
         fill-rule="evenodd"
         id="path902" />
      <path
         d="m 1786.4639,2132.1721 1.2355,6.8659 c 13.122,0.3567 22.328,2.6108 30.971,6.7307 8.643,4.1199 15.83,8.8624 24.407,9.0705 4.8883,0.1185 12.164,-1.4053 22.353,-3.6578 10.189,-2.2525 22.599,-5.3443 35,-8.6673 12.401,-3.323 24.769,-6.8707 34.892,-10.06 10.123,-3.1893 17.576,-5.7083 21.859,-8.1556 l -5.0698,-8.8611 c -1.9451,1.1115 -9.9282,4.1439 -19.847,7.2694 -9.9188,3.1255 -22.195,6.6417 -34.479,9.9332 -12.284,3.2915 -24.592,6.3622 -34.564,8.567 -9.972,2.2048 -18.31,3.4492 -19.889,3.4109 -4.3575,-0.1057 -11.129,-3.7182 -20.252,-8.0671 -9.123,-4.3489 -21.562,-3.9692 -36.616,-4.3784 z"
         fill-rule="evenodd"
         id="path904" />
      <path
         d="m 1788.9239,2193.3821 -21.717,0.4378 c 0,0 28.048,4.82 41.591,5.0812 6.7712,0.1307 13.82,0.2091 19.771,0.1595 5.951,-0.05 10.448,-0.1169 13.623,-0.6902 3.3781,-0.6101 26.358,-3.5154 47.582,-6.0854 21.224,-2.57 43.504,-4.9706 43.504,-4.9706 l -3.3302,-10.126 c 0,0 -20.158,2.386 -41.402,4.9585 -21.244,2.5725 -42.899,5.2086 -48.174,6.1611 -1.1514,0.208 -6.1055,0.4928 -11.894,0.5411 -15.847,1.9947 -24.279,3.3703 -39.554,4.5333 z"
         fill-rule="evenodd"
         id="path906" />
      <path
         d="m 1810.8339,1961.1821 5.3245,48.093 0.5982,2.8494 2.7668,0.9454 23.277,14.93 -9.1267,-15.062 -8.1099,-8.6134 -9.9937,-47.974 -4.7364,4.8316 z"
         fill-rule="evenodd"
         id="path908" />
      <path
         d="m 1861.2339,1990.4721 c -12.711,3.5277 -21.856,2.5062 -30.837,12.461 l -7.5189,-3.1282 -3.9212,9.4347 11.054,4.5952 3.9057,1.6159 2.3273,-3.534 c 0,0 4.2676,-6.3295 11.568,-10.21 3.8363,-2.0393 8.2226,-3.5907 12.027,-4.7937 3.8044,-1.203 6.4638,-1.612 9.3572,-3.2183 l -7.9622,-3.222 z"
         fill-rule="evenodd"
         id="path910" />
      <path
         d="m 1799.0139,2006.1321 c -13.726,4.0192 -35.616,7.8687 -42.584,20.879 16.073,-4.6735 28.253,-9.79 45.137,-10.98 8.656,-1.2376 15.884,-3.793 15.884,-3.793 l -2.1788,-9.983 c 0,0 -7.5762,1.6461 -16.258,3.8768 z"
         fill-rule="evenodd"
         id="path912" />
      <path
         d="m 1793.4239,2236.5721 -2.8479,4.5346 74.787,9.112 0.6699,-8.6118 z"
         fill-rule="evenodd"
         id="path914" />
      <path
         d="m 1596.6939,1949.1221 c 0,0 -8.6926,101.22 -12.842,107.68 -4.1494,6.46 3.0998,5.5839 -5.4669,17.501 -8.5667,11.9171 -16.615,39.732 -18.574,42.395 -1.959,2.663 -46.07,23.57 -46.07,23.57"
         fill="none"
         stroke="#000000"
         stroke-width="10.223"
         id="path916" />
      <path
         d="m 1781.0639,2075.1021 c 0,0 -15.836,13.343 -11.915,27.979 1.8335,6.8426 4.8055,14.923 7.8751,21.306 1.5348,3.1912 3.0888,5.9458 4.5974,7.9623 0.41,0.5481 0.8375,0.8989 1.2507,1.3351 -1.7863,0.6464 -4.0312,1.664 -6.3545,3.439 -5.0249,3.8391 -10.286,11.005 -11.554,23.717 -1.2306,12.339 -2.2476,20.057 -2.3108,25.01 -0.032,2.4765 0.1376,4.3009 0.8568,5.7897 0.7192,1.4888 2.1962,2.4118 3.7721,2.6604 l 37.745,-1.1831 c -0.9356,-0.1475 -31.771,-5.2464 -32.102,-5.9318 -0.331,-0.6854 -7.232,0.9861 -7.2029,-1.2977 0.058,-4.5676 1.0502,-12.363 2.2845,-24.739 1.197,-12.002 5.9695,-18.217 10.373,-21.582 4.4035,-3.365 9.8794,-0.9447 9.8794,-0.9447 2.982,0.8566 1.776,-5.9104 -1.2187,-6.3015 -0.4499,-0.3461 -2.3151,-0.9335 -2.9662,-1.8038 -1.3021,-1.7405 -2.7962,-4.3695 -4.2789,-7.4524 -2.9654,-6.1658 -5.9094,-14.155 -7.6841,-20.778 -3.2945,-12.296 8.7001,-23.271 8.7001,-23.271 l 0.2524,-3.9146 z"
         fill-rule="evenodd"
         id="path918" />
      <path
         d="m 1764.6539,2192.5821 c -2.6962,0.6138 -5.4477,1.8355 -7.3373,4.215 -1.8896,2.3795 -2.7527,5.8364 -1.9724,10.351 1.4838,8.5851 3.8696,14.492 7.1249,18.629 3.2553,4.137 7.3709,6.4023 11.92,7.7036 8.597,2.4593 16.293,7.5194 16.293,7.5194 l 6.3028,-3.4205 c 0,0 -12.98,-4.545 -21.75,-7.0539 -4.1346,-1.1828 -7.5361,-3.0448 -10.36,-6.6333 -2.8239,-3.5885 -5.0677,-9.0019 -6.4977,-17.276 -0.6766,-3.9148 0.04,-6.2839 1.3353,-7.915 1.2953,-1.6311 3.3332,-2.6055 5.6121,-3.1243 4.5579,-1.0376 11.063,-0.7059 11.063,-0.7059 l -0.5,-0.9314 c 0,0 -5.8408,-2.5857 -11.233,-1.3581 z"
         fill-rule="evenodd"
         id="path920" />
      <path
         d="m 1745.7439,2025.6921 c -2.6961,0.6138 -5.4476,1.8355 -7.3373,4.2149 -1.8897,2.3794 -2.7526,5.8364 -1.9724,10.351 1.4838,8.585 3.8696,14.492 7.1249,18.629 3.2553,4.137 7.3709,6.4023 11.92,7.7036 8.597,2.4593 24.313,11.518 24.313,11.518 l 6.3029,-3.4205 c 0,0 -21,-8.5431 -29.771,-11.052 -4.1347,-1.1828 -7.5361,-3.0449 -10.36,-6.6334 -2.8239,-3.5885 -5.0676,-9.0018 -6.4977,-17.276 -0.6765,-3.9147 0.04,-6.2838 1.3354,-7.9149 1.2954,-1.6311 3.3331,-2.6055 5.612,-3.1243 4.5579,-1.0377 10.266,-1.8083 10.266,-1.8083 l 0.7193,-1.4944 c 0,0 -6.2636,-0.9203 -11.656,0.3073 z"
         fill-rule="evenodd"
         id="path922" />
    </g>
    <text
       xml:space="preserve"
       style="font-weight:500;font-size:25.9312px;line-height:1.25;font-family:Roboto;-inkscape-font-specification:'Roboto Medium';letter-spacing:0px;word-spacing:0px;fill:#ffffff;stroke-width:0.303879"
       x="61.002998"
       y="268.85541"
       id="text892-5"><tspan
         sodipodi:role="line"
         id="tspan890-3"
         x="61.002998"
         y="268.85541"
         style="font-style:normal;font-variant:normal;font-weight:bold;font-stretch:normal;font-size:25.9312px;font-family:Roboto;-inkscape-font-specification:'Roboto Bold';fill:#ffffff;stroke-width:0.303879">UP</tspan></text>
    <text
       xml:space="preserve"
       style="font-weight:500;font-size:22.5778px;line-height:1.25;font-family:Roboto;-inkscape-font-specification:'Roboto Medium';letter-spacing:0px;word-spacing:0px;stroke-width:0.264583"
       x="63.22086"
       y="267.67975"
       id="text892"><tspan
         sodipodi:role="line"
         id="tspan890"
         x="63.22086"
         y="267.67975"
         style="font-style:normal;font-variant:normal;font-weight:bold;font-stretch:normal;font-size:22.5778px;font-family:Roboto;-inkscape-font-specification:'Roboto Bold';stroke-width:0.264583">UP</tspan></text>
  </g>
</svg>
